<svg width="12" height="12" viewBox="0 0 12 12" fill="none" xmlns="http://www.w3.org/2000/svg">
<path d="M6.6072 7.29136C6.39795 7.53548 6.29333 7.65754 6.16883 7.70226C6.05956 7.74152 5.94003 7.74152 5.83076 7.70226C5.70626 7.65754 5.60164 7.53548 5.39239 7.29136L4.13177 5.82063C3.77158 5.4004 3.59148 5.19029 3.58707 5.0124C3.58323 4.8578 3.65115 4.71012 3.77103 4.61242C3.90897 4.5 4.1857 4.5 4.73918 4.5H7.26041C7.81389 4.5 8.09062 4.5 8.22856 4.61242C8.34844 4.71012 8.41636 4.8578 8.41252 5.0124C8.40811 5.19029 8.22801 5.4004 7.86782 5.82063L6.6072 7.29136Z" fill="#171719"/>
</svg>
